<svg width="512" height="512" viewBox="0 0 512 512" fill="none" xmlns="http://www.w3.org/2000/svg">
  <!-- Background Circle -->
  <circle cx="256" cy="256" r="256" fill="#6366f1"/>
  
  <!-- Heart Icon (representing compassion) -->
  <path d="M256 448L64 256C32 224 32 176 64 144C96 112 144 112 176 144L256 224L336 144C368 112 416 112 448 144C480 176 480 224 448 256L256 448Z" fill="white"/>
  
  <!-- Voice Wave Lines -->
  <path d="M150 200 L150 312" stroke="white" stroke-width="16" stroke-linecap="round"/>
  <path d="M100 220 L100 292" stroke="white" stroke-width="12" stroke-linecap="round"/>
  <path d="M200 180 L200 332" stroke="white" stroke-width="12" stroke-linecap="round"/>
  
  <path d="M362 200 L362 312" stroke="white" stroke-width="16" stroke-linecap="round"/>
  <path d="M412 220 L412 292" stroke="white" stroke-width="12" stroke-linecap="round"/>
  <path d="M312 180 L312 332" stroke="white" stroke-width="12" stroke-linecap="round"/>
</svg>
